<mxfile host="Electron" modified="2023-04-16T06:33:01.936Z" agent="Mozilla/5.0 (Windows NT 10.0; Win64; x64) AppleWebKit/537.36 (KHTML, like Gecko) draw.io/21.1.2 Chrome/106.0.5249.199 Electron/21.4.3 Safari/537.36" etag="grxomY_qqx_dgjhRxeOj" version="21.1.2" type="device">
  <diagram id="R2lEEEUBdFMjLlhIrx00" name="Page-1">
    <mxGraphModel dx="864" dy="516" grid="1" gridSize="10" guides="1" tooltips="1" connect="1" arrows="1" fold="1" page="1" pageScale="1" pageWidth="850" pageHeight="1100" math="0" shadow="0" extFonts="Permanent Marker^https://fonts.googleapis.com/css?family=Permanent+Marker">
      <root>
        <object label="" DFSF="" id="0">
          <mxCell />
        </object>
        <mxCell id="1" parent="0" />
        <mxCell id="JXR821v0ZrnEiNUagJLl-1" value="Guards" style="swimlane;childLayout=stackLayout;horizontal=1;startSize=50;horizontalStack=0;rounded=1;fontSize=14;fontStyle=0;strokeWidth=2;resizeParent=0;resizeLast=1;shadow=0;dashed=0;align=center;arcSize=4;whiteSpace=wrap;html=1;" parent="1" vertex="1">
          <mxGeometry x="120" y="120" width="160" height="180" as="geometry" />
        </mxCell>
        <mxCell id="JXR821v0ZrnEiNUagJLl-2" value="+&lt;b&gt;Id&lt;/b&gt;&lt;br&gt;+name&lt;br&gt;+surname&lt;br&gt;+email&lt;br&gt;+cellphone&lt;br&gt;+direction" style="align=left;strokeColor=none;fillColor=none;spacingLeft=4;fontSize=12;verticalAlign=top;resizable=0;rotatable=0;part=1;html=1;" parent="JXR821v0ZrnEiNUagJLl-1" vertex="1">
          <mxGeometry y="50" width="160" height="130" as="geometry" />
        </mxCell>
        <mxCell id="JXR821v0ZrnEiNUagJLl-3" value="Targets" style="swimlane;childLayout=stackLayout;horizontal=1;startSize=50;horizontalStack=0;rounded=1;fontSize=14;fontStyle=0;strokeWidth=2;resizeParent=0;resizeLast=1;shadow=0;dashed=0;align=center;arcSize=4;whiteSpace=wrap;html=1;" parent="1" vertex="1">
          <mxGeometry x="630" y="130" width="170" height="170" as="geometry" />
        </mxCell>
        <mxCell id="JXR821v0ZrnEiNUagJLl-4" value="+&lt;b&gt;Id&lt;/b&gt;&lt;br&gt;+name&lt;br&gt;+type&lt;br&gt;+payment&lt;br&gt;+direction&lt;br&gt;+notes" style="align=left;strokeColor=none;fillColor=none;spacingLeft=4;fontSize=12;verticalAlign=top;resizable=0;rotatable=0;part=1;html=1;" parent="JXR821v0ZrnEiNUagJLl-3" vertex="1">
          <mxGeometry y="50" width="170" height="120" as="geometry" />
        </mxCell>
        <mxCell id="9y-UTpwijgu1nXjfwrVF-5" style="edgeStyle=orthogonalEdgeStyle;rounded=0;orthogonalLoop=1;jettySize=auto;html=1;exitX=0.5;exitY=0;exitDx=0;exitDy=0;entryX=0.5;entryY=1;entryDx=0;entryDy=0;endArrow=ERoneToMany;endFill=0;startArrow=ERoneToMany;startFill=0;" parent="1" source="JXR821v0ZrnEiNUagJLl-5" target="9y-UTpwijgu1nXjfwrVF-2" edge="1">
          <mxGeometry relative="1" as="geometry" />
        </mxCell>
        <mxCell id="JXR821v0ZrnEiNUagJLl-5" value="Journays" style="swimlane;childLayout=stackLayout;horizontal=1;startSize=50;horizontalStack=0;rounded=1;fontSize=14;fontStyle=0;strokeWidth=2;resizeParent=0;resizeLast=1;shadow=0;dashed=0;align=center;arcSize=4;whiteSpace=wrap;html=1;" parent="1" vertex="1">
          <mxGeometry x="380" y="600" width="160" height="120" as="geometry" />
        </mxCell>
        <mxCell id="JXR821v0ZrnEiNUagJLl-6" value="+&lt;b&gt;Id&lt;/b&gt;&lt;br&gt;+date" style="align=left;strokeColor=none;fillColor=none;spacingLeft=4;fontSize=12;verticalAlign=top;resizable=0;rotatable=0;part=1;html=1;" parent="JXR821v0ZrnEiNUagJLl-5" vertex="1">
          <mxGeometry y="50" width="160" height="70" as="geometry" />
        </mxCell>
        <mxCell id="9y-UTpwijgu1nXjfwrVF-1" value="Works" style="swimlane;childLayout=stackLayout;horizontal=1;startSize=50;horizontalStack=0;rounded=1;fontSize=14;fontStyle=0;strokeWidth=2;resizeParent=0;resizeLast=1;shadow=0;dashed=0;align=center;arcSize=4;whiteSpace=wrap;html=1;" parent="1" vertex="1">
          <mxGeometry x="380" y="330" width="160" height="180" as="geometry" />
        </mxCell>
        <mxCell id="9y-UTpwijgu1nXjfwrVF-2" value="+&lt;b&gt;Id&lt;/b&gt;&lt;br&gt;+&lt;u&gt;GuarId&lt;/u&gt;&lt;br&gt;+&lt;u&gt;TargetId&lt;/u&gt;&lt;br&gt;+&lt;u&gt;JournayId&lt;br&gt;&lt;/u&gt;+startHour&lt;br&gt;+endHour&lt;br&gt;+qtyHours&lt;br&gt;" style="align=left;strokeColor=none;fillColor=none;spacingLeft=4;fontSize=12;verticalAlign=top;resizable=0;rotatable=0;part=1;html=1;" parent="9y-UTpwijgu1nXjfwrVF-1" vertex="1">
          <mxGeometry y="50" width="160" height="130" as="geometry" />
        </mxCell>
        <mxCell id="9y-UTpwijgu1nXjfwrVF-3" style="edgeStyle=orthogonalEdgeStyle;rounded=0;orthogonalLoop=1;jettySize=auto;html=1;exitX=1;exitY=0.25;exitDx=0;exitDy=0;entryX=0;entryY=0.154;entryDx=0;entryDy=0;entryPerimeter=0;endArrow=ERoneToMany;endFill=0;startArrow=ERoneToMany;startFill=0;" parent="1" source="JXR821v0ZrnEiNUagJLl-2" target="9y-UTpwijgu1nXjfwrVF-2" edge="1">
          <mxGeometry relative="1" as="geometry" />
        </mxCell>
        <mxCell id="9y-UTpwijgu1nXjfwrVF-4" style="edgeStyle=orthogonalEdgeStyle;rounded=0;orthogonalLoop=1;jettySize=auto;html=1;exitX=0;exitY=0.25;exitDx=0;exitDy=0;entryX=1;entryY=0.192;entryDx=0;entryDy=0;entryPerimeter=0;endArrow=ERoneToMany;endFill=0;startArrow=ERoneToMany;startFill=0;" parent="1" source="JXR821v0ZrnEiNUagJLl-4" target="9y-UTpwijgu1nXjfwrVF-2" edge="1">
          <mxGeometry relative="1" as="geometry" />
        </mxCell>
      </root>
    </mxGraphModel>
  </diagram>
</mxfile>
